<mxfile host="app.diagrams.net" modified="2022-06-02T12:50:30.135Z" agent="5.0 (Windows NT 10.0; Win64; x64) AppleWebKit/537.36 (KHTML, like Gecko) Chrome/98.0.4758.102 Safari/537.36" etag="bZ9AVA0cXZTy3tdqiVBm" version="18.2.0" type="github">
  <diagram name="Page-1" id="42789a77-a242-8287-6e28-9cd8cfd52e62">
    <mxGraphModel dx="1560" dy="638" grid="1" gridSize="10" guides="1" tooltips="1" connect="1" arrows="1" fold="1" page="1" pageScale="1" pageWidth="1100" pageHeight="850" background="none" math="0" shadow="0">
      <root>
        <mxCell id="0" />
        <mxCell id="1" parent="0" />
        <mxCell id="nDp9_FoU3aF0ZBxoCtjC-1" value="不含有security.kylin属性" style="ellipse;whiteSpace=wrap;html=1;" vertex="1" parent="1">
          <mxGeometry x="460" y="100" width="200" height="120" as="geometry" />
        </mxCell>
        <mxCell id="nDp9_FoU3aF0ZBxoCtjC-2" value="security.kylin属性为verified" style="ellipse;whiteSpace=wrap;html=1;" vertex="1" parent="1">
          <mxGeometry x="270" y="350" width="230" height="140" as="geometry" />
        </mxCell>
        <mxCell id="nDp9_FoU3aF0ZBxoCtjC-3" value="&lt;span style=&quot;&quot;&gt;security.kylin属性为unknown&lt;/span&gt;" style="ellipse;whiteSpace=wrap;html=1;" vertex="1" parent="1">
          <mxGeometry x="670" y="358" width="250" height="135" as="geometry" />
        </mxCell>
        <mxCell id="nDp9_FoU3aF0ZBxoCtjC-23" value="不能够执行" style="whiteSpace=wrap;html=1;shape=mxgraph.basic.roundRectCallout;dx=30;dy=15;size=5;boundedLbl=1;" vertex="1" parent="1">
          <mxGeometry x="880" y="300" width="100" height="60" as="geometry" />
        </mxCell>
        <mxCell id="nDp9_FoU3aF0ZBxoCtjC-24" value="允许执行" style="whiteSpace=wrap;html=1;shape=mxgraph.basic.roundRectCallout;dx=30;dy=15;size=5;boundedLbl=1;direction=west;" vertex="1" parent="1">
          <mxGeometry x="150" y="460" width="100" height="60" as="geometry" />
        </mxCell>
        <mxCell id="nDp9_FoU3aF0ZBxoCtjC-27" value="允许执行" style="whiteSpace=wrap;html=1;shape=mxgraph.basic.roundRectCallout;dx=30;dy=15;size=5;boundedLbl=1;" vertex="1" parent="1">
          <mxGeometry x="660" y="30" width="100" height="60" as="geometry" />
        </mxCell>
      </root>
    </mxGraphModel>
  </diagram>
</mxfile>
